<svg xmlns="http://www.w3.org/2000/svg" width="80" height="80" viewBox="0 0 80 80">
  <g id="Group_9" data-name="Group 9" transform="translate(259 -6266)">
    <rect id="Rectangle_27" data-name="Rectangle 27" width="80" height="80" transform="translate(-259 6266)" fill="none"/>
    <path id="ICON_4" data-name="ICON 4" d="M34.147,5.691A28.456,28.456,0,1,1,5.691,34.147,28.488,28.488,0,0,1,34.147,5.691Zm0-5.691A34.147,34.147,0,1,0,68.294,34.147,34.149,34.149,0,0,0,34.147,0ZM37.7,48.375a3.557,3.557,0,1,1-3.557-3.557A3.556,3.556,0,0,1,37.7,48.375Zm3.964-28.45a10.046,10.046,0,0,0-7.259-2.718c-6.2,0-10.216,4.411-10.216,11.24h5.723c0-4.229,2.359-5.728,4.376-5.728a3.761,3.761,0,0,1,3.881,3.489c.177,2.41-1.11,3.634-2.737,5.182-4.018,3.822-4.092,5.671-4.075,9.869h5.705c-.037-1.89.085-3.423,2.661-6.2,1.927-2.077,4.323-4.661,4.371-8.6A8.907,8.907,0,0,0,41.668,19.925Z" transform="translate(-252.147 6271.853)" fill="#33363b"/>
  </g>
</svg>
