<svg xmlns="http://www.w3.org/2000/svg" width="80" height="80" viewBox="0 0 80 80">
  <g id="Group_10" data-name="Group 10" transform="translate(258 -6158)">
    <rect id="Rectangle_29" data-name="Rectangle 29" width="80" height="80" transform="translate(-258 6158)" fill="none"/>
    <path id="ICON_3" data-name="ICON 3" d="M33.611,5.6A28.009,28.009,0,1,1,5.6,33.611,28.041,28.041,0,0,1,33.611,5.6Zm0-5.6A33.611,33.611,0,1,0,67.222,33.611,33.612,33.612,0,0,0,33.611,0Zm11.2,47.615H22.407V30.81H44.815ZM28.009,30.81v-5.6a5.6,5.6,0,0,1,11.2,0v5.6h2.8v-5.6a8.4,8.4,0,0,0-16.805,0v5.6Z" transform="translate(-251.611 6164.389)" fill="#33363b"/>
  </g>
</svg>
