<svg xmlns="http://www.w3.org/2000/svg" width="80" height="80" viewBox="0 0 80 80">
  <g id="Group_12" data-name="Group 12" transform="translate(258 -5945)">
    <rect id="Rectangle_28" data-name="Rectangle 28" width="80" height="80" transform="translate(-258 5945)" fill="none"/>
    <path id="ICON_2" data-name="ICON 2" d="M45.743,48.953a24.07,24.07,0,0,0,4.367-2.044L53.42,51.2a29.691,29.691,0,0,1-6.341,2.934ZM17.616,39.877l-3.34,4.705a28.743,28.743,0,0,0,3.969,4.045l3.012-4.53A22.865,22.865,0,0,1,17.616,39.877ZM14.343,23.858C16.322,13.328,25.961,5.3,37.577,5.3c13.046,0,23.659,10.108,23.659,22.532a21.918,21.918,0,0,1-6.78,15.759l3.332,4.313A27.113,27.113,0,0,0,66.8,27.834C66.8,12.464,53.712,0,37.577,0,22.858,0,10.719,10.375,8.693,23.858H0L11.134,39.543,22.268,23.858ZM30.334,49.237a24.016,24.016,0,0,1-4.615-1.943l-2.964,4.461a29.672,29.672,0,0,0,6.126,2.606Zm10,.965a18.317,18.317,0,0,1-4.518.056l-1.484,5.227a28.155,28.155,0,0,0,7.337-.119Z" transform="translate(-251.401 5957.166)" fill="#33363b"/>
  </g>
</svg>
